ModelForces
version=1
nRows=4
nColumns=157
inDegrees=no

This file contains the forces exerted on a model during a simulation.

A force is a generalized force, meaning that it can be either a force (N) or a torque (Nm).

Units are S.I. units (second, meters, Newtons, ...)
Angles are in degrees.

endheader
time	glut_med1_r	glut_med2_r	glut_med3_r	glut_min1_r	glut_min2_r	glut_min3_r	semimem_r	semiten_r	bifemlh_r	bifemsh_r	sar_r	add_long_r	add_brev_r	add_mag1_r	add_mag2_r	add_mag3_r	tfl_r	pect_r	grac_r	glut_max1_r	glut_max2_r	glut_max3_r	iliacus_r	psoas_r	quad_fem_r	gem_r	peri_r	rect_fem_r	vas_med_r	vas_int_r	vas_lat_r	med_gas_r	lat_gas_r	soleus_r	tib_post_r	flex_dig_r	flex_hal_r	tib_ant_r	per_brev_r	per_long_r	per_tert_r	ext_dig_r	ext_hal_r	glut_med1_l	glut_med2_l	glut_med3_l	glut_min1_l	glut_min2_l	glut_min3_l	semimem_l	semiten_l	bifemlh_l	bifemsh_l	sar_l	add_long_l	add_brev_l	add_mag1_l	add_mag2_l	add_mag3_l	tfl_l	pect_l	grac_l	glut_max1_l	glut_max2_l	glut_max3_l	iliacus_l	psoas_l	quad_fem_l	gem_l	peri_l	rect_fem_l	vas_med_l	vas_int_l	vas_lat_l	med_gas_l	lat_gas_l	soleus_l	tib_post_l	flex_dig_l	flex_hal_l	tib_ant_l	per_brev_l	per_long_l	per_tert_l	ext_dig_l	ext_hal_l	ercspn_r	ercspn_l	intobl_r	intobl_l	extobl_r	extobl_l	femur_lat_meniscii_r.femur_lat_r.force.X	femur_lat_meniscii_r.femur_lat_r.force.Y	femur_lat_meniscii_r.femur_lat_r.force.Z	femur_lat_meniscii_r.femur_lat_r.torque.X	femur_lat_meniscii_r.femur_lat_r.torque.Y	femur_lat_meniscii_r.femur_lat_r.torque.Z	femur_lat_meniscii_r.meniscus_lat_r.force.X	femur_lat_meniscii_r.meniscus_lat_r.force.Y	femur_lat_meniscii_r.meniscus_lat_r.force.Z	femur_lat_meniscii_r.meniscus_lat_r.torque.X	femur_lat_meniscii_r.meniscus_lat_r.torque.Y	femur_lat_meniscii_r.meniscus_lat_r.torque.Z	femur_med_meniscii_r.femur_med_r.force.X	femur_med_meniscii_r.femur_med_r.force.Y	femur_med_meniscii_r.femur_med_r.force.Z	femur_med_meniscii_r.femur_med_r.torque.X	femur_med_meniscii_r.femur_med_r.torque.Y	femur_med_meniscii_r.femur_med_r.torque.Z	femur_med_meniscii_r.meniscus_med_r.force.X	femur_med_meniscii_r.meniscus_med_r.force.Y	femur_med_meniscii_r.meniscus_med_r.force.Z	femur_med_meniscii_r.meniscus_med_r.torque.X	femur_med_meniscii_r.meniscus_med_r.torque.Y	femur_med_meniscii_r.meniscus_med_r.torque.Z	femur_med_tibia_r.tibia_upper_r.force.X	femur_med_tibia_r.tibia_upper_r.force.Y	femur_med_tibia_r.tibia_upper_r.force.Z	femur_med_tibia_r.tibia_upper_r.torque.X	femur_med_tibia_r.tibia_upper_r.torque.Y	femur_med_tibia_r.tibia_upper_r.torque.Z	femur_med_tibia_r.femur_med_r.force.X	femur_med_tibia_r.femur_med_r.force.Y	femur_med_tibia_r.femur_med_r.force.Z	femur_med_tibia_r.femur_med_r.torque.X	femur_med_tibia_r.femur_med_r.torque.Y	femur_med_tibia_r.femur_med_r.torque.Z	femur_lat_tibia_r.tibia_upper_r.force.X	femur_lat_tibia_r.tibia_upper_r.force.Y	femur_lat_tibia_r.tibia_upper_r.force.Z	femur_lat_tibia_r.tibia_upper_r.torque.X	femur_lat_tibia_r.tibia_upper_r.torque.Y	femur_lat_tibia_r.tibia_upper_r.torque.Z	femur_lat_tibia_r.femur_lat_r.force.X	femur_lat_tibia_r.femur_lat_r.force.Y	femur_lat_tibia_r.femur_lat_r.force.Z	femur_lat_tibia_r.femur_lat_r.torque.X	femur_lat_tibia_r.femur_lat_r.torque.Y	femur_lat_tibia_r.femur_lat_r.torque.Z	aACL_R	pACL_R	aPCL_R	pPCL_R	aMCL_R	mMCL_R	pMCL_R	aLCL_R	mLCL_R	pLCL_R	ground_prescribedForce_fx	ground_prescribedForce_fy	ground_prescribedForce_fz	ground_prescribedForce_px	ground_prescribedForce_py	ground_prescribedForce_pz
      0.27007930	      8.52968230	      6.33999164	      6.79594064	      2.96118043	      3.50643293	      3.60706226	      0.00000000	      3.56341456	      3.93333978	      5.74394848	      1.60092110	      6.28957515	      4.60723601	      3.26372111	      2.75091610	      4.52410408	      3.43570860	      2.49493064	      1.51470088	      4.09106942	      6.21912985	      4.65192925	     23.87259712	     14.34916171	      4.04844428	      3.05308061	      4.83905153	    245.58351557	     44.28016254	     86.28201645	     61.37800390	      0.00000000	      0.00000000	     11.81481851	     12.54391193	      3.14482574	      2.85353468	     13.93646681	      4.88524216	     10.35247265	      7.00752341	      6.02258502	      2.15829805	      8.52968230	      6.33999164	      6.79594064	      2.96118043	      3.50643293	      3.60706226	     10.15772339	      4.60903395	      8.86494728	      8.05582380	      1.69165846	      6.28957515	      4.60723601	      3.26372111	      2.75091610	      4.52410408	      4.42935351	      2.49493064	      1.73827304	      4.09106942	      6.21912985	      4.65192925	     23.87259712	     14.34916171	      4.04844428	      3.05308061	      4.83905153	     12.27860121	      7.39714521	      8.50383483	      9.13903879	     16.97865117	      7.88537750	     36.77953440	     44.64280105	      3.34959546	      3.47393971	      9.66859739	      5.05093234	     14.07112109	      2.21998060	      6.18879989	      1.95013036	     27.85596849	     27.85596849	     10.12189430	     10.12189430	     27.81271241	     27.81271241	    206.84108691	     -1.76541269	     39.06733991	    -15.74553185	      5.09968202	     84.05130303	   -206.84108691	      1.76541269	    -39.06733991	      0.05792488	     -6.98722698	     -1.07894326	     82.52353089	    -60.55122189	    -11.39604050	      3.44865107	     -1.61683768	     33.27410888	    -82.52353089	     60.55122189	     11.39604050	      0.90274200	      1.64172204	     -1.89605762	   -511.86806178	     15.31282748	    106.04799373	     -0.17623190	     10.11084547	     -2.29856438	    511.86806178	    -15.31282748	   -106.04799373	     42.68613475	     -8.93695220	    207.31409732	    -10.12779769	     -1.66300709	     -3.03765066	      0.06161413	     -0.37497216	     -0.00002871	     10.12779769	      1.66300709	      3.03765066	     -1.27476688	      0.25012161	      4.11313927	     17.97622371	      2.29843930	    785.48898176	    319.03099389	     28.11243036	      0.00000000	      0.00000000	      0.00000000	      0.00000000	      0.00000000	      0.00000000	   -110.00000000	      0.00000000	      0.03000000	     -0.03000000	      0.00000000
      0.27584813	      8.45857012	      6.29128623	      6.74308352	      2.93939816	      3.48278947	      3.57705715	      0.00000000	      3.53323326	      3.88840785	      5.72058535	      2.40357523	      6.24068859	      4.57374266	      3.23881337	      2.72941905	      4.48520691	      3.42245893	      2.47645517	      1.50668996	      4.05962589	      6.17119267	      4.61543283	     23.78392790	     14.24880398	      4.01800767	      3.03864351	      4.78674136	    241.07631082	     44.24605096	     86.15289258	     61.26834621	      0.00000000	      0.00000000	     11.55056342	     11.52219942	      3.17693978	      2.71366559	     13.81206260	      5.12458525	     10.61908848	      0.94885931	      5.60801582	      2.13908054	      8.45857012	      6.29128623	      6.74308352	      2.93939816	      3.48278947	      3.57705715	     10.05653665	      4.57095826	      8.77986456	      7.99521355	      1.67927354	      6.24068859	      4.57374266	      3.23881337	      2.72941905	      4.48520691	      4.40525088	      2.47645517	      1.72532090	      4.05962589	      6.17119267	      4.61543283	     23.78392790	     14.24880398	      4.01800767	      3.03864351	      4.78674136	     12.16245250	      7.33889590	      8.43561045	      9.06600928	     16.77791449	      7.79204915	     36.38137891	     44.48013709	      3.30833906	      3.43495205	      9.58061518	      4.99978651	     13.95901584	      2.20445852	      6.11797852	      1.92847063	     27.65058580	     27.65058580	     10.04072547	     10.04072547	     27.73973619	     27.73973619	    204.06661120	     -1.25096782	     39.43083748	    -15.91014213	      5.04333616	     82.91479528	   -204.06661120	      1.25096782	    -39.43083748	      0.07862347	     -6.92535277	     -1.04156541	     82.90439925	    -60.68715049	    -11.19735457	      3.36483942	     -1.62680959	     33.42733642	    -82.90439925	     60.68715049	     11.19735457	      0.90798448	      1.64686031	     -1.90032932	   -519.40252412	     15.73402553	    106.69490277	     -0.17111046	     10.25639883	     -2.33742345	    519.40252412	    -15.73402553	   -106.69490277	     42.93939331	     -9.07727314	    210.36424663	     -8.04899764	     -1.32274491	     -2.43418737	      0.04910863	     -0.29848282	     -0.00009435	      8.04899764	      1.32274491	      2.43418737	     -1.02132453	      0.19891168	      3.26897610	     18.46280748	      2.88245220	    787.58881511	    322.22425811	     29.84713372	      0.00000000	      0.00000000	      0.00000000	      0.00000000	      0.00000000	      0.00000000	   -110.00000000	      0.00000000	      0.03000000	     -0.03000000	      0.00000000
      0.27642501	      8.45175020	      6.28661423	      6.73801356	      2.93730685	      3.48052134	      3.57417950	      0.00000000	      3.52726602	      3.87981000	      5.70610793	      2.00375806	      6.23599948	      4.57049021	      3.23642414	      2.72735721	      4.48147667	      3.42361612	      2.47468232	      1.50394998	      4.05660989	      6.16659465	      4.61193238	     23.77542392	     14.23918112	      4.01508774	      3.03725927	      4.78171355	    243.01904713	     44.16192234	     86.02219873	     61.16832881	      0.00000000	      0.00000000	     11.54538873	     11.43066397	      3.17972285	      2.69981696	     13.79420392	      5.14793158	     10.64458321	      5.86396621	      5.56837950	      2.13852067	      8.45175020	      6.28661423	      6.73801356	      2.93730685	      3.48052134	      3.57417950	     10.04682440	      4.56730660	      8.77170070	      7.98939900	      1.67808353	      6.23599948	      4.57049021	      3.23642414	      2.72735721	      4.48147667	      4.40293947	      2.47468232	      1.72407821	      4.05660989	      6.16659465	      4.61193238	     23.77542392	     14.23918112	      4.01508774	      3.03725927	      4.78171355	     12.15130893	      7.33330953	      8.42906781	      9.05900605	     16.75857885	      7.78305959	     36.34311308	     44.46452246	      3.30441793	      3.43120009	      9.57217597	      4.99487629	     13.94823755	      2.20297002	      6.11117551	      1.92639205	     27.63087155	     27.63087155	     10.03294052	     10.03294052	     27.73273742	     27.73273742	    204.05532758	     -1.27965491	     39.32282465	    -15.86555745	      5.04172483	     82.91001760	   -204.05532758	      1.27965491	    -39.32282465	      0.07731414	     -6.91990450	     -1.04225331	     83.04500710	    -60.75958663	    -11.22102664	      3.37286596	     -1.62969567	     33.48381525	    -83.04500710	     60.75958663	     11.22102664	      0.90937555	      1.65015480	     -1.90241897	   -519.17335980	     15.80249426	    106.57760977	     -0.16991830	     10.25139237	     -2.33933465	    519.17335980	    -15.80249426	   -106.57760977	     42.89086187	     -9.07336525	    210.27193975	     -7.75622770	     -1.27299859	     -2.34724028	      0.04729062	     -0.28764567	     -0.00017478	      7.75622770	      1.27299859	      2.34724028	     -0.98479155	      0.19167746	      3.15010287	     18.43160248	      2.80086575	    787.60363520	    321.63221500	     29.37943508	      0.00000000	      0.00000000	      0.00000000	      0.00000000	      0.00000000	      0.00000000	   -110.00000000	      0.00000000	      0.03000000	     -0.03000000	      0.00000000
      0.27719771	      8.44269579	      6.28041122	      6.73128226	      2.93453056	      3.47750994	      3.57035900	      0.00000000	      3.52139555	      3.87127094	      5.69556553	      1.81587859	      6.22977382	      4.56618777	      3.23325195	      2.72461977	      4.47652428	      3.42387503	      2.47232854	      1.50169624	      4.05260560	      6.16048996	      4.60728495	     23.76413359	     14.22640589	      4.01121092	      3.03542158	      4.77503535	    244.02019093	     44.10911577	     85.95432635	     61.09900933	      0.00000000	      0.00000000	     11.52435718	     11.30658838	      3.18254151	      2.68042617	     13.77410569	      5.18014686	     10.67919965	      6.21527326	      5.51902837	      2.13887212	      8.44269579	      6.28041122	      6.73128226	      2.93453056	      3.47750994	      3.57035900	     10.03392778	      4.56245847	      8.76086088	      7.98167896	      1.67650412	      6.22977382	      4.56618777	      3.23325195	      2.72461977	      4.47652428	      4.39987078	      2.47232854	      1.72242827	      4.05260560	      6.16048996	      4.60728495	     23.76413359	     14.22640589	      4.01121092	      3.03542158	      4.77503535	     12.13651303	      7.32589282	      8.42038160	      9.04970841	     16.73288448	      7.77111377	     36.29228722	     44.44378775	      3.29922159	      3.42621492	      9.56097134	      4.98835586	     13.93392029	      2.20099387	      6.10214083	      1.92363219	     27.60469874	     27.60469874	     10.02260472	     10.02260472	     27.72344554	     27.72344554	    203.90874494	     -1.32400824	     39.25222077	    -15.83591109	      5.03759331	     82.85042135	   -203.90874494	      1.32400824	    -39.25222077	      0.07586904	     -6.91238217	     -1.04286760	     83.18531656	    -60.86787846	    -11.17408433	      3.35187230	     -1.63184952	     33.54050475	    -83.18531656	     60.86787846	     11.17408433	      0.91135623	      1.65074218	     -1.90587155	   -519.39451087	     15.89603872	    106.56421898	     -0.16834398	     10.25680892	     -2.34366904	    519.39451087	    -15.89603872	   -106.56421898	     42.88358025	     -9.07815803	    210.36211633	     -7.40739026	     -1.21412577	     -2.24407739	      0.04513696	     -0.27475229	     -0.00025243	      7.40739026	      1.21412577	      2.24407739	     -0.94144823	      0.18306184	      3.00846021	     18.38759443	      2.71066824	    787.64780977	    321.10683790	     28.92690690	      0.00000000	      0.00000000	      0.00000000	      0.00000000	      0.00000000	      0.00000000	   -110.00000000	      0.00000000	      0.03000000	     -0.03000000	      0.00000000
